<?xml version="1.0" encoding="UTF-8" standalone="no"?>
<svg width="256px" height="60px" viewBox="0 0 256 60" version="1.1" xmlns="http://www.w3.org/2000/svg" xmlns:xlink="http://www.w3.org/1999/xlink" xmlns:sketch="http://www.bohemiancoding.com/sketch/ns">
    <!-- Generator: Sketch 3.4.2 (15857) - http://www.bohemiancoding.com/sketch -->
    <title>BVA logo jusite kleuren</title>
    <desc>Created with Sketch.</desc>
    <defs></defs>
    <g id="Page-1" stroke="none" stroke-width="1" fill="none" fill-rule="evenodd" sketch:type="MSPage">
        <g id="BVA-logo-jusite-kleuren" sketch:type="MSLayerGroup">
            <g id="Group" sketch:type="MSShapeGroup">
                <path d="M51.6024112,0 C38.741831,0 26.2547945,4.65103111 16.4892917,13.0337034 L15.9556577,13.5204393 L18.1969206,13.5204393 C27.5888796,5.73266625 39.4889186,1.46020744 51.6557746,1.46020744" id="Shape" fill="#6A737B"></path>
                <path d="M51.6024112,0 C64.4629915,0 76.9500279,4.65103111 86.7155308,13.0337034 L87.2491648,13.5204393 L85.0079018,13.5204393 C75.6159428,5.73266625 63.7159038,1.46020744 51.5490478,1.46020744" id="Shape" fill="#6A737B"></path>
                <path d="M6.83051565,39.6419279 L6.83051565,50.6205246 L10.5659539,50.6205246 C12.9673071,50.6205246 14.8350262,50.1337888 16.0623845,49.2143989 C17.3431062,48.2409273 17.983467,46.8888834 17.983467,45.1041854 C17.983467,43.3194874 17.3964696,42.0215252 16.2224747,41.1021354 C15.0484798,40.1827455 13.3408509,39.6960097 11.0462245,39.6960097 L6.83051565,39.6960097 L6.83051565,39.6419279 L6.83051565,39.6419279 Z M6.83051565,24.4449542 L6.83051565,34.5582428 L10.1390467,34.5582428 C12.433673,34.5582428 14.1413019,34.1255887 15.3152968,33.2602806 C16.4892917,32.3949725 17.0762891,31.1510921 17.0762891,29.5286394 C17.0762891,27.8521049 16.5426551,26.6082245 15.4220236,25.7429164 C14.3013921,24.8776082 12.70049,24.4449542 10.5659539,24.4449542 L6.83051565,24.4449542 L6.83051565,24.4449542 L6.83051565,24.4449542 Z M0,19.2531055 L11.6865854,19.2531055 C15.742204,19.2531055 18.8372815,20.0643319 20.9184542,21.6867846 C22.9996269,23.3092373 24.066895,25.6347528 24.066895,28.7714948 C24.066895,30.7725198 23.4798976,32.4490542 22.3592661,33.9092617 C21.2386346,35.3153874 19.5843691,36.288859 17.5031964,36.8837583 C19.9579129,37.3704941 21.7722686,38.3980475 23.0529903,39.9664185 C24.333712,41.4807077 24.9740729,43.4276509 24.9740729,45.8072482 C24.9740729,49.1062354 23.800078,51.648078 21.5054516,53.3786942 C19.2108253,55.1093104 15.7955674,55.9746186 11.366405,55.9746186 L0,55.9746186 L0,19.2531055 L0,19.2531055 L0,19.2531055 Z" id="Shape" fill="#0968AE"></path>
                <path d="M33.5655808,21.6867846 L40.9830939,18.3877974 L49.9481457,41.3184624 L59.3934681,18.5500427 L66.4374374,21.6867846 L51.6557746,55.650128 L48.0270632,55.650128 L33.5655808,21.6867846 L33.5655808,21.6867846 Z" id="Shape" fill="#0968AE"></path>
                <path d="M71.7204144,55.7582915 L87.5693452,19.361269 L89.9706984,19.361269 L105.285995,55.7582915 L96.8545774,55.7582915 L94.4532243,49.9715435 L82.1262781,49.9715435 L79.8316517,55.7582915 L71.7204144,55.7582915 L71.7204144,55.7582915 L71.7204144,55.7582915 Z M83.6738168,43.5898962 L88.2630695,31.4755826 L93.3325928,43.4817327 L83.6738168,43.5898962 L83.6738168,43.5898962 L83.6738168,43.5898962 Z" id="Shape" fill="#0968AE"></path>
            </g>
            <g id="Group" transform="translate(120.601292, 28.122514)" fill="#666666" sketch:type="MSShapeGroup">
                <path d="M4.10898207,9.84287978 L0.426907228,9.84287978 L0.426907228,0.648981085 L4.42916249,0.648981085 C5.76324758,0.648981085 6.83051565,1.18979866 6.83051565,2.92041488 C6.83051565,3.73164124 6.51033523,4.59694935 5.49643057,4.97552165 C6.40360843,5.19184868 7.15069607,5.94899328 7.15069607,7.03062842 C7.15069607,8.65308113 6.19015481,9.84287978 4.10898207,9.84287978 L4.10898207,9.84287978 L4.10898207,9.84287978 Z M2.77489698,2.59592434 L2.77489698,4.21837705 L3.68207484,4.21837705 C4.21570888,4.21837705 4.42916249,3.83980475 4.42916249,3.35306894 C4.42916249,2.86633312 4.21570888,2.6500061 3.62871144,2.6500061 L2.77489698,2.6500061 L2.77489698,2.59592434 L2.77489698,2.59592434 Z M3.62871144,6.05715679 L2.77489698,6.05715679 L2.77489698,7.89593653 L3.68207484,7.89593653 C4.26907228,7.89593653 4.5358893,7.51736423 4.5358893,6.9224649 C4.4825259,6.43572909 4.32243569,6.05715679 3.62871144,6.05715679 L3.62871144,6.05715679 L3.62871144,6.05715679 Z" id="Shape"></path>
                <path d="M13.5009411,9.84287978 L11.4197684,9.84287978 L8.32469095,0.648981085 L10.8861343,0.648981085 L12.0067658,4.32654056 C12.166856,4.86735813 12.2735828,5.24593043 12.433673,6.05715679 L12.433673,6.05715679 C12.5937632,5.30001219 12.7538534,4.75919462 12.9139437,4.27245881 L14.1946653,0.703062842 L16.6493819,0.703062842 L13.5009411,9.84287978 L13.5009411,9.84287978 L13.5009411,9.84287978 Z" id="Shape"></path>
                <path d="M22.7328099,9.84287978 L22.2525393,8.0581818 L20.1180031,8.0581818 L19.6377325,9.84287978 L17.1830159,9.84287978 L20.1180031,0.648981085 L22.5193563,0.648981085 L25.2942533,9.84287978 L22.7328099,9.84287978 L22.7328099,9.84287978 L22.7328099,9.84287978 Z M21.3987248,4.59694935 C21.291998,4.16429529 21.2386346,3.62347772 21.2386346,3.29898718 C21.2386346,3.62347772 21.1319078,4.16429529 20.9718176,4.75919462 L20.5982738,6.27348382 L21.7722686,6.27348382 L21.3987248,4.59694935 L21.3987248,4.59694935 L21.3987248,4.59694935 Z" id="Shape"></path>
                <path d="M26.7884286,7.08471017 L26.7884286,5.19184868 L30.3637766,5.19184868 L30.3637766,7.08471017 L26.7884286,7.08471017 L26.7884286,7.08471017 L26.7884286,7.08471017 Z" id="Shape"></path>
                <path d="M37.4077459,9.84287978 L36.9274753,8.0581818 L34.7929391,8.0581818 L34.3126685,9.84287978 L31.8579519,9.84287978 L34.7929391,0.648981085 L37.1942923,0.648981085 L39.9691893,9.84287978 L37.4077459,9.84287978 L37.4077459,9.84287978 L37.4077459,9.84287978 Z M36.0736608,4.59694935 C35.966934,4.16429529 35.9135706,3.62347772 35.9135706,3.29898718 C35.9135706,3.62347772 35.8068438,4.16429529 35.6467536,4.75919462 L35.2732097,6.27348382 L36.4472046,6.27348382 L36.0736608,4.59694935 L36.0736608,4.59694935 L36.0736608,4.59694935 Z" id="Shape"></path>
                <path d="M48.4539704,6.97654666 C48.4539704,7.78777302 48.4539704,8.11226356 48.2405168,8.49083586 C47.866973,9.24798046 46.8530683,9.9510433 45.0387126,9.9510433 C43.5979007,9.9510433 42.6373594,9.572471 42.050362,8.8153264 C41.7301816,8.32859059 41.6234548,8.11226356 41.6234548,6.86838315 L41.6234548,0.594899328 L43.9714445,0.594899328 L43.9714445,6.59797436 C43.9714445,7.46328247 44.2382615,8.00410004 45.0387126,8.00410004 C45.892527,8.00410004 46.1059807,7.51736423 46.1059807,6.65205612 L46.1059807,0.594899328 L48.4539704,0.594899328 L48.4539704,6.97654666 L48.4539704,6.97654666 L48.4539704,6.97654666 Z" id="Shape"></path>
                <path d="M54.9643057,10.0051251 C53.8436742,10.0051251 52.8297695,9.68063451 51.9759551,8.76124464 C51.2822308,7.95001829 50.908687,6.76021963 50.908687,5.46225746 C50.908687,4.32654056 51.0687772,3.46123245 51.5490478,2.59592434 C52.2961355,1.1357169 53.6302206,0.486735813 55.2311227,0.486735813 C56.1383005,0.486735813 57.1522052,0.757144599 57.525749,1.1357169 L56.5118444,2.86633312 C56.0849371,2.54184258 55.6580299,2.37959731 55.1777593,2.37959731 C54.750852,2.37959731 54.3773082,2.48776082 54.1638546,2.75816961 C53.7369474,3.24490542 53.5768572,3.67755948 53.5768572,4.75919462 C53.5768572,6.27348382 53.6302206,7.03062842 54.0037644,7.46328247 C54.3239448,7.84185477 54.6974886,8.0581818 55.1777593,8.0581818 C55.7647567,8.0581818 56.2450273,7.89593653 56.725298,7.46328247 L57.7392026,9.08573519 C57.258932,9.62655276 56.2983907,10.0051251 54.9643057,10.0051251 L54.9643057,10.0051251 L54.9643057,10.0051251 Z" id="Shape"></path>
                <path d="M65.583623,2.59592434 L63.4490868,2.59592434 L63.4490868,9.84287978 L61.1010971,9.84287978 L61.1010971,2.59592434 L58.9665609,2.59592434 L58.9665609,0.648981085 L65.7970766,0.648981085 L65.583623,2.59592434 L65.583623,2.59592434 L65.583623,2.59592434 Z" id="Shape"></path>
                <path d="M67.9316127,9.84287978 L67.9316127,0.648981085 L70.3329659,0.648981085 L70.3329659,9.84287978 L67.9316127,9.84287978 L67.9316127,9.84287978 L67.9316127,9.84287978 Z" id="Shape"></path>
                <path d="M72.8410458,5.46225746 C72.8410458,2.16327028 74.6020382,0.486735813 77.0033913,0.486735813 C80.0984687,0.486735813 81.0056466,2.86633312 81.0056466,4.92143989 C81.0056466,7.57144599 80.2051955,10.0051251 76.9500279,10.0051251 C74.2818577,10.0051251 72.8410458,8.22042707 72.8410458,5.46225746 L72.8410458,5.46225746 L72.8410458,5.46225746 Z M78.3908398,5.19184868 C78.3908398,2.92041488 77.9639326,2.32551555 76.9500279,2.32551555 C75.8827598,2.32551555 75.4558526,3.46123245 75.4558526,5.19184868 C75.4558526,7.51736423 75.9894866,8.11226356 77.0033913,8.11226356 C77.9639326,8.11226356 78.3908398,7.51736423 78.3908398,5.19184868 L78.3908398,5.19184868 L78.3908398,5.19184868 Z" id="Shape"></path>
                <path d="M87.8895256,9.84287978 L86.2886235,6.65205612 C86.0751699,6.1653203 85.7549895,5.51633922 85.5948993,4.92143989 C85.6482627,5.30001219 85.7016261,6.11123855 85.7016261,7.24695545 L85.7016261,9.84287978 L83.4603631,9.84287978 L83.4603631,0.648981085 L85.7016261,0.648981085 L87.3558916,3.78572299 C87.6227086,4.27245881 87.8895256,4.92143989 88.1029793,5.51633922 C88.0496158,4.97552165 88.0496158,4.05613178 88.0496158,3.46123245 L88.0496158,0.594899328 L90.2908788,0.594899328 L90.2908788,9.78879803 L87.8895256,9.78879803 L87.8895256,9.84287978 L87.8895256,9.84287978 Z" id="Shape"></path>
                <path d="M95.9473996,10.0051251 C94.5599511,10.0051251 93.492683,9.68063451 92.5855052,9.1938987 L93.3859562,7.35511896 C94.026317,7.73369126 95.0402217,8.11226356 95.9473996,8.11226356 C96.8545774,8.11226356 97.2281213,7.78777302 97.2281213,7.24695545 C97.2281213,6.81430139 96.9613042,6.65205612 96.3209434,6.48981085 L95.2536753,6.21940206 C93.9195902,5.84082976 93.0124124,5.13776692 93.0124124,3.56939597 C93.0124124,1.73061623 94.5065877,0.540817571 96.534397,0.540817571 C97.8151187,0.540817571 98.9891136,0.865308113 99.7895646,1.46020744 L98.6689332,3.13674191 C98.0819357,2.70408785 97.2281213,2.48776082 96.6411238,2.48776082 C96.0541264,2.48776082 95.733946,2.75816961 95.733946,3.13674191 C95.733946,3.46123245 95.9473996,3.73164124 96.6411238,3.89388651 L97.5483017,4.11021354 C98.5088429,4.38062232 99.9496548,4.81327638 99.9496548,6.65205612 C99.9496548,8.8153264 98.3487527,10.0051251 95.9473996,10.0051251 L95.9473996,10.0051251 L95.9473996,10.0051251 Z" id="Shape"></path>
                <path d="M103.258186,10.0592068 C102.511098,10.0592068 101.924101,9.46430748 101.924101,8.70716289 C101.924101,8.00410004 102.511098,7.35511896 103.258186,7.35511896 C104.005274,7.35511896 104.592271,7.95001829 104.592271,8.70716289 C104.592271,9.46430748 104.005274,10.0592068 103.258186,10.0592068 L103.258186,10.0592068 L103.258186,10.0592068 Z" id="Shape"></path>
                <path d="M110.515609,10.0051251 C109.394977,10.0051251 108.381073,9.68063451 107.527258,8.76124464 C106.833534,7.95001829 106.45999,6.76021963 106.45999,5.46225746 C106.45999,4.32654056 106.62008,3.46123245 107.100351,2.59592434 C107.847439,1.1357169 109.181524,0.486735813 110.782426,0.486735813 C111.689604,0.486735813 112.703508,0.757144599 113.077052,1.1357169 L112.063147,2.86633312 C111.63624,2.54184258 111.209333,2.37959731 110.729062,2.37959731 C110.302155,2.37959731 109.928611,2.48776082 109.715158,2.75816961 C109.28825,3.24490542 109.12816,3.67755948 109.12816,4.75919462 C109.12816,6.27348382 109.181524,7.03062842 109.555067,7.46328247 C109.875248,7.84185477 110.248792,8.0581818 110.729062,8.0581818 C111.31606,8.0581818 111.79633,7.89593653 112.276601,7.46328247 L113.290506,9.08573519 C112.756872,9.62655276 111.849694,10.0051251 110.515609,10.0051251 L110.515609,10.0051251 L110.515609,10.0051251 Z" id="Shape"></path>
                <path d="M114.731318,5.46225746 C114.731318,2.16327028 116.49231,0.486735813 118.893663,0.486735813 C121.988741,0.486735813 122.895918,2.86633312 122.895918,4.92143989 C122.895918,7.57144599 122.095467,10.0051251 118.8403,10.0051251 C116.17213,10.0051251 114.731318,8.22042707 114.731318,5.46225746 L114.731318,5.46225746 L114.731318,5.46225746 Z M120.281112,5.19184868 C120.281112,2.92041488 119.854204,2.32551555 118.8403,2.32551555 C117.773032,2.32551555 117.346124,3.46123245 117.346124,5.19184868 C117.346124,7.51736423 117.879758,8.11226356 118.893663,8.11226356 C119.854204,8.11226356 120.281112,7.51736423 120.281112,5.19184868 L120.281112,5.19184868 L120.281112,5.19184868 Z" id="Shape"></path>
                <path d="M132.341241,9.84287978 L132.127787,6.11123855 C132.074424,5.51633922 132.074424,5.02960341 132.074424,4.27245881 L132.074424,4.27245881 C131.967697,5.02960341 131.914334,5.51633922 131.754243,6.00307503 L130.633612,9.84287978 L128.659166,9.84287978 L127.698625,6.11123855 C127.591898,5.57042098 127.485171,5.08368516 127.378444,4.27245881 L127.378444,4.27245881 C127.378444,5.08368516 127.378444,5.57042098 127.325081,6.1653203 L127.164991,9.84287978 L124.817001,9.84287978 L125.724179,0.648981085 L128.552439,0.648981085 L129.459617,4.27245881 C129.566344,4.81327638 129.673071,5.30001219 129.779797,6.00307503 L129.779797,6.00307503 C129.833161,5.30001219 129.939888,4.86735813 130.153341,4.11021354 L131.060519,0.594899328 L133.835416,0.594899328 L134.689231,9.78879803 L132.341241,9.78879803 L132.341241,9.84287978 L132.341241,9.84287978 Z" id="Shape"></path>
            </g>
            <g id="Group" transform="translate(120.067658, 44.347041)" fill="#FF6600" sketch:type="MSShapeGroup">
                <path d="M6.61706204,11.4112507 L6.083428,9.41022573 L3.68207484,9.41022573 L3.14844081,11.4112507 L0.373543825,11.4112507 L3.62871144,1.08163514 L6.35024502,1.08163514 L9.44532243,11.4112507 L6.61706204,11.4112507 L6.61706204,11.4112507 L6.61706204,11.4112507 Z M5.12288674,5.51633922 C5.01615993,5.02960341 4.96279653,4.43470408 4.90943313,4.05613178 C4.85606972,4.43470408 4.80270632,5.02960341 4.64261611,5.67858449 L4.21570888,7.35511896 L5.54979397,7.35511896 L5.12288674,5.51633922 L5.12288674,5.51633922 L5.12288674,5.51633922 Z" id="Shape"></path>
                <path d="M12.8605803,11.6275778 C10.7260441,11.6275778 10.6726807,10.4918609 10.6726807,8.97757167 L10.6726807,3.73164124 C10.6726807,2.70408785 10.6726807,1.5142892 10.5659539,0.91938987 L13.0740339,0.486735813 C13.1273973,0.973471627 13.1807607,1.62245271 13.1807607,2.37959731 L13.1807607,8.11226356 C13.1807607,9.46430748 13.2341241,9.84287978 13.8211215,9.84287978 C13.9278483,9.84287978 13.9812117,9.84287978 14.0879385,9.78879803 L14.5148458,11.4112507 C14.1946653,11.5194143 13.6076679,11.6275778 12.8605803,11.6275778 L12.8605803,11.6275778 L12.8605803,11.6275778 Z" id="Shape"></path>
                <path d="M18.5704644,3.78572299 L19.9579129,3.78572299 L19.6377325,5.46225746 L18.5704644,5.46225746 L18.5704644,8.54491761 C18.5704644,9.62655276 18.7305546,9.84287978 19.3709155,9.84287978 C19.5843691,9.84287978 19.8511861,9.78879803 20.0112763,9.68063451 L20.3314568,11.140842 C19.6910959,11.4653325 19.0507351,11.573496 18.4103742,11.573496 C16.9695623,11.573496 16.0623845,11.1949237 16.0623845,9.73471627 L16.0623845,5.40817571 L15.4220236,5.40817571 L15.4220236,3.78572299 L16.0623845,3.78572299 C16.0623845,3.0285784 16.0623845,2.37959731 16.1691113,1.8928615 L18.6771912,1.5142892 C18.5704644,2.32551555 18.5704644,3.08266015 18.5704644,3.78572299 L18.5704644,3.78572299 L18.5704644,3.78572299 Z" id="Shape"></path>
                <path d="M23.2130805,3.19082367 C22.4126295,3.19082367 21.7722686,2.54184258 21.7722686,1.73061623 C21.7722686,0.91938987 22.4659929,0.270408785 23.2664439,0.270408785 C24.066895,0.270408785 24.7072558,0.91938987 24.7072558,1.73061623 C24.7072558,2.54184258 24.066895,3.19082367 23.2130805,3.19082367 L23.2130805,3.19082367 L23.2130805,3.19082367 Z M21.9857223,11.4112507 L21.9857223,3.89388651 L24.5471656,3.67755948 L24.5471656,11.4653325 L21.9857223,11.4653325 L21.9857223,11.4112507 L21.9857223,11.4112507 Z" id="Shape"></path>
                <path d="M27.0018822,14.9265649 L25.9879775,13.574521 C26.574975,13.0877852 26.841792,12.5469676 26.841792,11.357169 L26.841792,3.89388651 L29.4032354,3.67755948 L29.4032354,11.1949237 C29.4032354,13.358194 28.8696013,14.1153386 27.0018822,14.9265649 L27.0018822,14.9265649 L27.0018822,14.9265649 Z M28.0157869,3.19082367 C27.2153358,3.19082367 26.574975,2.54184258 26.574975,1.73061623 C26.574975,0.91938987 27.2686992,0.270408785 28.0691503,0.270408785 C28.8696013,0.270408785 29.5099622,0.91938987 29.5099622,1.73061623 C29.5099622,2.54184258 28.8696013,3.19082367 28.0157869,3.19082367 L28.0157869,3.19082367 L28.0157869,3.19082367 Z" id="Shape"></path>
                <path d="M35.9135706,11.4112507 C35.8602072,11.2490055 35.8068438,11.0867602 35.8068438,10.9245149 C35.4333,11.357169 34.9530293,11.573496 34.1525783,11.573496 C32.2314957,11.573496 31.1108643,10.1132886 31.1108643,7.6796095 C31.1108643,5.46225746 32.1247689,3.51531421 34.3660319,3.51531421 C34.7395757,3.51531421 35.1664829,3.62347772 35.3799366,3.78572299 C35.3265731,3.56939597 35.2732097,2.97449664 35.2732097,2.54184258 L35.2732097,0.540817571 L37.8346531,0.865308113 L37.8346531,8.32859059 C37.8346531,10.2755338 37.8880165,10.7622697 38.1014701,11.357169 L35.9135706,11.357169 L35.9135706,11.4112507 L35.9135706,11.4112507 Z M35.3265731,5.84082976 C35.2732097,5.67858449 35.0063927,5.57042098 34.7929391,5.57042098 C34.1525783,5.57042098 33.9391247,6.05715679 33.9391247,7.78777302 C33.9391247,8.86940816 34.0458515,9.68063451 34.7929391,9.68063451 C35.0597561,9.68063451 35.2732097,9.572471 35.3265731,9.41022573 L35.3265731,5.84082976 L35.3265731,5.84082976 L35.3265731,5.84082976 Z" id="Shape"></path>
                <path d="M51.6024112,11.4112507 L49.3077849,11.4112507 L48.667424,8.54491761 C48.5073338,7.84185477 48.400607,7.08471017 48.400607,6.5438926 C48.3472436,7.08471017 48.2405168,7.73369126 48.0270632,8.59899937 L47.3867023,11.4112507 L45.1454394,11.4112507 L43.0642667,3.94796826 L45.5723466,3.67755948 L45.9458905,6.05715679 C46.0526173,6.81430139 46.2127075,7.73369126 46.3194343,8.59899937 L46.3194343,8.59899937 C46.3727977,7.84185477 46.5862513,6.86838315 46.7997049,5.84082976 L47.2799755,3.73164124 L49.5746019,3.73164124 L50.1615993,6.48981085 C50.2683261,7.08471017 50.4284163,7.78777302 50.4817798,8.54491761 L50.4817798,8.54491761 C50.5351432,7.6796095 50.64187,6.81430139 50.8019602,5.89491152 L51.175504,3.73164124 L53.7369474,3.73164124 L51.6024112,11.4112507 L51.6024112,11.4112507 L51.6024112,11.4112507 Z" id="Shape"></path>
                <path d="M59.1266511,10.9785967 C58.7531073,11.3030872 58.1127465,11.6275778 57.258932,11.6275778 C55.3912129,11.6275778 54.6441252,10.4918609 54.6441252,9.13981694 C54.6441252,7.6796095 55.8714835,6.65205612 58.0060197,6.65205612 L58.4329269,6.65205612 L58.4329269,6.1653203 C58.4329269,5.73266625 58.3795635,5.46225746 57.792566,5.46225746 C56.9387516,5.46225746 56.2983907,5.786748 55.6580299,6.27348382 L54.750852,4.65103111 C55.7113933,4.05613178 56.8853882,3.56939597 58.1661099,3.56939597 C59.6069218,3.56939597 60.6208264,4.05613178 60.8876434,4.97552165 C60.9943703,5.30001219 60.9943703,5.62450273 60.9943703,6.1653203 L60.9410068,8.8153264 C60.9410068,9.46430748 60.9943703,9.9510433 61.5280043,10.3296156 L60.0871924,11.789823 C59.6602852,11.6275778 59.2333779,11.2490055 59.1266511,10.9785967 L59.1266511,10.9785967 L59.1266511,10.9785967 Z M57.0988418,9.08573519 C57.0988418,9.51838924 57.3656588,9.84287978 57.792566,9.84287978 C58.0060197,9.84287978 58.3262001,9.73471627 58.3795635,9.572471 L58.3795635,8.22042707 C57.3122954,8.22042707 57.0988418,8.65308113 57.0988418,9.08573519 L57.0988418,9.08573519 L57.0988418,9.08573519 Z" id="Shape"></path>
                <path d="M65.9038034,3.78572299 L67.2912519,3.78572299 L66.9710714,5.46225746 L65.9038034,5.46225746 L65.9038034,8.54491761 C65.9038034,9.62655276 66.0638936,9.84287978 66.7042544,9.84287978 C66.917708,9.84287978 67.1845251,9.78879803 67.3446153,9.68063451 L67.6647957,11.140842 C67.0244349,11.4653325 66.384074,11.573496 65.7437132,11.573496 C64.3029013,11.573496 63.3957234,11.1949237 63.3957234,9.73471627 L63.3957234,5.40817571 L62.7553626,5.40817571 L62.7553626,3.78572299 L63.3957234,3.78572299 C63.3957234,3.0285784 63.3957234,2.37959731 63.5024502,1.8928615 L66.0105302,1.5142892 C65.9038034,2.32551555 65.9038034,3.08266015 65.9038034,3.78572299 L65.9038034,3.78572299 L65.9038034,3.78572299 Z" id="Shape"></path>
                <path d="M75.776033,3.78572299 L77.1634815,3.78572299 L76.8433011,5.46225746 L75.776033,5.46225746 L75.776033,8.54491761 C75.776033,9.62655276 75.9361232,9.84287978 76.5764841,9.84287978 C76.7899377,9.84287978 77.0567547,9.78879803 77.2168449,9.68063451 L77.5370254,11.140842 C76.8966645,11.4653325 76.2563037,11.573496 75.6159428,11.573496 C74.1751309,11.573496 73.2679531,11.1949237 73.2679531,9.73471627 L73.2679531,5.40817571 L72.5742288,5.40817571 L72.5742288,3.78572299 L73.2145897,3.78572299 C73.2145897,3.0285784 73.2145897,2.37959731 73.3213165,1.8928615 L75.8293964,1.5142892 C75.7226696,2.32551555 75.776033,3.08266015 75.776033,3.78572299 L75.776033,3.78572299 L75.776033,3.78572299 Z" id="Shape"></path>
                <path d="M82.2330049,9.78879803 C82.8733657,9.78879803 83.56709,9.51838924 84.2074508,9.03165343 L85.1679921,10.4918609 C84.1540874,11.3030872 83.1935461,11.573496 82.0729147,11.573496 C79.6715615,11.573496 78.3374764,10.0592068 78.3374764,7.57144599 C78.3374764,5.02960341 79.6181981,3.51531421 81.8060976,3.51531421 C84.2608142,3.51531421 85.2213555,5.08368516 85.2213555,7.73369126 L85.2213555,8.38267234 L81.0056466,8.38267234 C81.0056466,8.86940816 81.1657368,9.78879803 82.2330049,9.78879803 L82.2330049,9.78879803 L82.2330049,9.78879803 Z M81.9128244,5.35409395 C81.3791904,5.35409395 81.0056466,5.67858449 81.0056466,6.70613787 L82.7132755,6.70613787 C82.7666389,5.89491152 82.5531853,5.35409395 81.9128244,5.35409395 L81.9128244,5.35409395 L81.9128244,5.35409395 Z" id="Shape"></path>
                <path d="M96.1074898,11.0326784 C95.5738557,11.4653325 95.0402217,11.6275778 94.3998609,11.6275778 C93.7061366,11.6275778 93.225866,11.357169 92.9056856,10.9785967 C92.9056856,11.140842 92.8523222,11.357169 92.7455954,11.4653325 L90.5576958,11.4653325 C90.717786,11.140842 90.717786,10.6541061 90.717786,10.0051251 L90.717786,3.13674191 C90.717786,2.21735204 90.6644226,1.67653447 90.5043324,1.02755338 L93.0657758,0.594899328 C93.1191392,0.973471627 93.225866,1.56837095 93.225866,2.05510677 L93.225866,3.24490542 C93.225866,3.51531421 93.225866,3.94796826 93.1725026,4.11021354 C93.3859562,3.89388651 93.8662268,3.67755948 94.5065877,3.67755948 C96.26758,3.67755948 97.4949383,4.92143989 97.4949383,7.51736423 C97.6016651,8.97757167 97.1213945,10.2214521 96.1074898,11.0326784 L96.1074898,11.0326784 L96.1074898,11.0326784 Z M93.9729536,5.67858449 C93.5994098,5.67858449 93.4393196,5.89491152 93.3325928,6.05715679 L93.3325928,9.24798046 C93.4393196,9.35614397 93.6527732,9.51838924 93.9729536,9.51838924 C94.6133145,9.51838924 94.8801315,8.97757167 94.8801315,7.57144599 C94.8801315,6.00307503 94.5599511,5.67858449 93.9729536,5.67858449 L93.9729536,5.67858449 L93.9729536,5.67858449 Z" id="Shape"></path>
                <path d="M100.590016,3.19082367 C99.7895646,3.19082367 99.1492038,2.54184258 99.1492038,1.73061623 C99.1492038,0.91938987 99.842928,0.270408785 100.643379,0.270408785 C101.44383,0.270408785 102.084191,0.91938987 102.084191,1.73061623 C102.084191,2.54184258 101.390467,3.19082367 100.590016,3.19082367 L100.590016,3.19082367 L100.590016,3.19082367 Z M99.309294,11.4112507 L99.309294,3.89388651 L101.870737,3.67755948 L101.870737,11.4653325 L99.309294,11.4653325 L99.309294,11.4112507 L99.309294,11.4112507 Z" id="Shape"></path>
                <path d="M107.473895,9.78879803 C108.114256,9.78879803 108.80798,9.51838924 109.448341,9.03165343 L110.408882,10.4918609 C109.394977,11.3030872 108.434436,11.573496 107.313805,11.573496 C104.912451,11.573496 103.578366,10.0592068 103.578366,7.57144599 C103.578366,5.02960341 104.859088,3.51531421 107.046988,3.51531421 C109.501704,3.51531421 110.462245,5.08368516 110.462245,7.73369126 L110.462245,8.38267234 L106.246536,8.38267234 C106.246536,8.86940816 106.406627,9.78879803 107.473895,9.78879803 L107.473895,9.78879803 L107.473895,9.78879803 Z M107.153714,5.35409395 C106.62008,5.35409395 106.246536,5.67858449 106.246536,6.70613787 L107.954165,6.70613787 C108.007529,5.89491152 107.740712,5.35409395 107.153714,5.35409395 L107.153714,5.35409395 L107.153714,5.35409395 Z" id="Shape"></path>
                <path d="M116.438947,11.4112507 C116.385583,11.2490055 116.33222,11.0867602 116.33222,10.9245149 C115.958676,11.357169 115.478405,11.573496 114.677954,11.573496 C112.756872,11.573496 111.63624,10.1132886 111.63624,7.6796095 C111.63624,5.46225746 112.650145,3.51531421 114.891408,3.51531421 C115.264952,3.51531421 115.691859,3.62347772 115.905312,3.78572299 C115.851949,3.56939597 115.798586,2.97449664 115.798586,2.54184258 L115.798586,0.540817571 L118.360029,0.865308113 L118.360029,8.32859059 C118.360029,10.2755338 118.413392,10.7622697 118.626846,11.357169 L116.438947,11.357169 L116.438947,11.4112507 L116.438947,11.4112507 Z M115.798586,5.84082976 C115.745222,5.67858449 115.478405,5.57042098 115.264952,5.57042098 C114.624591,5.57042098 114.411137,6.05715679 114.411137,7.78777302 C114.411137,8.86940816 114.517864,9.68063451 115.264952,9.68063451 C115.531769,9.68063451 115.745222,9.572471 115.798586,9.41022573 L115.798586,5.84082976 L115.798586,5.84082976 L115.798586,5.84082976 Z" id="Shape"></path>
                <path d="M123.963186,9.78879803 C124.603547,9.78879803 125.297272,9.51838924 125.937632,9.03165343 L126.898174,10.4918609 C125.884269,11.3030872 124.923728,11.573496 123.803096,11.573496 C121.401743,11.573496 120.067658,10.0592068 120.067658,7.57144599 C120.067658,5.02960341 121.34838,3.51531421 123.536279,3.51531421 C125.990996,3.51531421 126.951537,5.08368516 126.951537,7.73369126 L126.951537,8.38267234 L122.735828,8.38267234 C122.735828,8.86940816 122.895918,9.78879803 123.963186,9.78879803 L123.963186,9.78879803 L123.963186,9.78879803 Z M123.643006,5.35409395 C123.109372,5.35409395 122.735828,5.67858449 122.735828,6.70613787 L124.443457,6.70613787 C124.443457,5.89491152 124.230003,5.35409395 123.643006,5.35409395 L123.643006,5.35409395 L123.643006,5.35409395 Z" id="Shape"></path>
                <path d="M132.661421,11.4112507 L132.661421,6.48981085 C132.661421,5.67858449 132.394604,5.67858449 132.02106,5.67858449 C131.807607,5.67858449 131.54079,5.786748 131.167246,6.11123855 L131.167246,11.4112507 L128.605803,11.4112507 L128.605803,6.5438926 C128.605803,5.62450273 128.552439,4.81327638 128.392349,4.00205002 L130.740339,3.62347772 C130.793702,3.78572299 130.847065,4.11021354 130.900429,4.32654056 C131.3807,3.94796826 132.074424,3.62347772 133.088328,3.62347772 C134.849321,3.62347772 135.222865,4.65103111 135.222865,5.73266625 L135.222865,11.4653325 L132.661421,11.4653325 L132.661421,11.4112507 L132.661421,11.4112507 Z" id="Shape"></path>
            </g>
        </g>
    </g>
</svg>